<?xml version="1.0" encoding="utf-8"?>
<!-- Svg Vector Icons : http://www.onlinewebfonts.com/icon -->
<!DOCTYPE svg PUBLIC "-//W3C//DTD SVG 1.1//EN" "http://www.w3.org/Graphics/SVG/1.1/DTD/svg11.dtd">
<svg version="1.1" xmlns="http://www.w3.org/2000/svg" xmlns:xlink="http://www.w3.org/1999/xlink" x="0px" y="0px" viewBox="0 0 1000 1000" enable-background="new 0 0 1000 1000" xml:space="preserve">
<metadata> Svg Vector Icons : http://www.onlinewebfonts.com/icon </metadata>
<g><g><path d="M981.6,550.6L760.8,737c0,0-26.2,27.6-26.1-2.4c0-30.2,0-103,0-103s-17.8,0-44.9,0c-53.2,0-300.5,0-490.9,0c0,0.1,0,0.2,0,0.2H24.6h-2.4c-4.3-0.4-10.9-3.4-11.8-16.9H10V458.7h0.3c0.1-126.9,0.1-167.9,0.1-191.5c0,0-4.1-15.7,19.5-15.8c23.8,0,135.6,0.1,152.5,0.1c16.8-0.1,16.6,13.2,16.6,13.2c0,22.2,0,56.7,0,178.3c191.1,0,437.7,0.1,488.9,0.2c24.3-0.2,40.1,0,40.1,0s0-58.4,0-95c0-36.7,27.6-9,27.6-9s206.1,159.1,227.8,180.8C999.1,535.5,981.6,550.6,981.6,550.6z"/></g><g></g><g></g><g></g><g></g><g></g><g></g><g></g><g></g><g></g><g></g><g></g><g></g><g></g><g></g><g></g></g>
</svg>